<svg id="Attire" xmlns="http://www.w3.org/2000/svg" xmlns:xlink="http://www.w3.org/1999/xlink" width="81.875" height="74.035" viewBox="0 0 81.875 74.035">
  <defs>
    <clipPath id="clip-path">
      <path id="Path_2906" data-name="Path 2906" d="M50.979-74.035a3.512,3.512,0,0,0-3.826,2.887h0a6.493,6.493,0,0,1-6.1,5.008h-.032a6.409,6.409,0,0,1-6.275-4.967h0a3.525,3.525,0,0,0-3.866-2.928h-.032a30.609,30.609,0,0,0-15.578,4.2h0c-3.6,2.113-7.23,4.3-10.742,6.415h0l-2.5,1.505A3.555,3.555,0,0,0,.542-56.78h0c2.471,4.958,5,10.012,7.5,15.021h0a3.555,3.555,0,0,0,3.206,2.312h0A4.616,4.616,0,0,0,13.3-39.99h0c.811-.4,1.62-.8,2.458-1.217h0V-5.973A6.033,6.033,0,0,0,17.346-1.6h0A5.976,5.976,0,0,0,21.7,0h0l38.43,0c3.753,0,5.994-2.25,5.995-6.013h0V-41.205c.82.411,1.617.809,2.417,1.2h0a4.766,4.766,0,0,0,2.094.562h0a3.6,3.6,0,0,0,3.218-2.36h0q3.717-7.424,7.427-14.851h0a4.933,4.933,0,0,0,.589-2.15h0v-.04a3.7,3.7,0,0,0-2.141-3.146h0l-3.109-1.868c-3.13-1.882-6.367-3.829-9.557-5.732h0A31.025,31.025,0,0,0,50.979-74.035Zm0,3.129a27.92,27.92,0,0,1,14.482,4h0c3.186,1.9,6.421,3.846,9.548,5.726h0l3.11,1.87a2.056,2.056,0,0,1,.634.495h0a2.045,2.045,0,0,1-.269.761h0Q74.78-50.623,71.062-43.2h0a1.9,1.9,0,0,1-.425.632h0a1.887,1.887,0,0,1-.711-.242h0c-1.037-.51-2.071-1.028-3.155-1.572h0l-.587-.293h0c.062-6.489.719-8.416.727-8.436h0l-.014.035L64-54.258c-.156.381-.919,2.638-.949,10.13h0a1.6,1.6,0,0,0-.049.391h0V-6.019c0,2.049-.832,2.885-2.869,2.886h0l-38.43,0a2.931,2.931,0,0,1-2.141-.679h0a2.986,2.986,0,0,1-.679-2.166h0v-37.76c0-7.857-.791-10.194-.95-10.583h0l-2.9,1.182-.013-.035c.007.019.666,1.954.727,8.47h0l-.627.312c-1.109.552-2.158,1.074-3.209,1.591h0a1.93,1.93,0,0,1-.66.227h0s-.162-.092-.412-.591h0c-2.507-5.007-5.032-10.059-7.5-15.016h0a1.717,1.717,0,0,1-.226-.641h0a1.456,1.456,0,0,1,.523-.421h0l2.5-1.506c3.5-2.111,7.128-4.294,10.712-6.4h0a27.515,27.515,0,0,1,14.026-3.765h0a1.929,1.929,0,0,1,.626.064h0a1.925,1.925,0,0,1,.227.578h0a9.546,9.546,0,0,0,9.288,7.252h.045a9.589,9.589,0,0,0,9.1-7.3h0a1.527,1.527,0,0,1,.2-.525h0a1.537,1.537,0,0,1,.613-.07" fill="none"/>
    </clipPath>
    <linearGradient id="linear-gradient" x1="-0.116" y1="5.326" x2="1.531" y2="5.326" gradientUnits="objectBoundingBox">
      <stop offset="0" stop-color="#034da9"/>
      <stop offset="0.1" stop-color="#0857a4"/>
      <stop offset="0.2" stop-color="#0d629d"/>
      <stop offset="0.3" stop-color="#146d96"/>
      <stop offset="0.4" stop-color="#1a778d"/>
      <stop offset="0.5" stop-color="#208184"/>
      <stop offset="0.6" stop-color="#268b79"/>
      <stop offset="0.7" stop-color="#2d956e"/>
      <stop offset="0.8" stop-color="#339f62"/>
      <stop offset="0.9" stop-color="#3aa855"/>
      <stop offset="1" stop-color="#41b147"/>
    </linearGradient>
  </defs>
  <g id="Group_2557" data-name="Group 2557" transform="translate(0 74.035)" clip-path="url(#clip-path)">
    <g id="Group_2556" data-name="Group 2556" transform="translate(-354.157 -82.623) rotate(90)">
      <path id="Path_2905" data-name="Path 2905" d="M8.588-354.157v-81.875H82.623v81.875Z" fill="url(#linear-gradient)"/>
    </g>
  </g>
</svg>
