<svg id="Benefits" xmlns="http://www.w3.org/2000/svg" xmlns:xlink="http://www.w3.org/1999/xlink" width="64.705" height="79.394" viewBox="0 0 64.705 79.394">
  <defs>
    <clipPath id="clip-path">
      <path id="Path_2894" data-name="Path 2894" d="M32.622-79.394a1.766,1.766,0,0,0-1.766,1.766h0v5.5A32.8,32.8,0,0,0,9.23-62.721h0A30.475,30.475,0,0,0,0-41.41H0v.047a3.236,3.236,0,0,0,.932,2.188h0a3.152,3.152,0,0,0,2.211.874h0a3.175,3.175,0,0,0,2.332-.992h0a6.642,6.642,0,0,1,4.854-2.262h0a6.7,6.7,0,0,1,5.064,2.5h0a3.007,3.007,0,0,0,2.278,1.036h0a3.012,3.012,0,0,0,2.281-1.04h0a6.691,6.691,0,0,1,5.06-2.493h0a6.476,6.476,0,0,1,4.581,2h0a1.767,1.767,0,0,0,1.24.509h.023V-9.607a6.241,6.241,0,0,1-6.382,6.073h0a6.241,6.241,0,0,1-6.382-6.073h0a1.767,1.767,0,0,0-1.767-1.768h0a1.768,1.768,0,0,0-1.767,1.768h0A9.776,9.776,0,0,0,24.474,0h0a9.776,9.776,0,0,0,9.915-9.607h0v-29.52a1.761,1.761,0,0,0,.724-.431h0a6.476,6.476,0,0,1,4.581-2h0a6.7,6.7,0,0,1,5.064,2.5h0a3.01,3.01,0,0,0,2.278,1.036h0a3.009,3.009,0,0,0,2.28-1.04h0a6.7,6.7,0,0,1,5.06-2.493h0a6.638,6.638,0,0,1,4.853,2.26h0a3.178,3.178,0,0,0,2.334.994h0a3.135,3.135,0,0,0,2.209-.876h0a3.221,3.221,0,0,0,.933-2.178h0v-.065a30.46,30.46,0,0,0-9.229-21.3h0A32.785,32.785,0,0,0,34.389-72.1h0v-5.53A1.767,1.767,0,0,0,32.622-79.394ZM11.713-60.206A29.26,29.26,0,0,1,31.057-68.6h2.591a29.261,29.261,0,0,1,19.346,8.393h0a27.006,27.006,0,0,1,8.143,17.83h0a9.985,9.985,0,0,0-6.761-2.713h0a10.068,10.068,0,0,0-7.341,3.282h0a10.07,10.07,0,0,0-7.341-3.282h0a9.959,9.959,0,0,0-6.51,2.506H31.523a9.967,9.967,0,0,0-6.511-2.506h0a10.065,10.065,0,0,0-7.341,3.282h0a10.072,10.072,0,0,0-7.342-3.282h0a9.991,9.991,0,0,0-6.761,2.713h0a27,27,0,0,1,8.145-17.83" fill="none"/>
    </clipPath>
    <linearGradient id="linear-gradient" x1="-0.041" y1="-4.46" x2="1.495" y2="-4.46" gradientUnits="objectBoundingBox">
      <stop offset="0" stop-color="#034da9"/>
      <stop offset="0.1" stop-color="#0857a4"/>
      <stop offset="0.2" stop-color="#0d629d"/>
      <stop offset="0.3" stop-color="#146d96"/>
      <stop offset="0.4" stop-color="#1a778d"/>
      <stop offset="0.5" stop-color="#208184"/>
      <stop offset="0.6" stop-color="#268b79"/>
      <stop offset="0.7" stop-color="#2d956e"/>
      <stop offset="0.8" stop-color="#339f62"/>
      <stop offset="0.9" stop-color="#3aa855"/>
      <stop offset="1" stop-color="#41b147"/>
    </linearGradient>
  </defs>
  <g id="Group_2542" data-name="Group 2542" transform="translate(0 79.394)" clip-path="url(#clip-path)">
    <g id="Group_2541" data-name="Group 2541" transform="translate(353.267 -82.623) rotate(90)">
      <path id="Path_2893" data-name="Path 2893" d="M3.229,353.267v-64.7H82.623v64.7Z" fill="url(#linear-gradient)"/>
    </g>
  </g>
</svg>
