<svg id="Money" xmlns="http://www.w3.org/2000/svg" xmlns:xlink="http://www.w3.org/1999/xlink" width="70.861" height="77.834" viewBox="0 0 70.861 77.834">
  <defs>
    <clipPath id="clip-path">
      <path id="Path_2890" data-name="Path 2890" d="M21.992-77.834a4.9,4.9,0,0,0-3.6,1.463h0a5.053,5.053,0,0,0-1.165,4.445h0c.456,3.589,3.3,8.689,7.526,12.183h0c-5.906,3.417-12.173,9.43-16.888,16.309h0C1.691-34.43-.986-25.456.326-18.167h0C1.653-10.788,7.7-1.7,28.951-.275h0C31.686-.093,34.332,0,36.814,0h.008c25.25,0,32.28-9.485,33.73-17.442h0a19.72,19.72,0,0,0,.309-3.447h0V-21.1c-.031-6.773-3.153-14.774-8.888-22.539h0C56.548-50.99,49.452-57.194,42.906-60.422h0a29.526,29.526,0,0,0,4.8-6.78h0c.851-1.639,2.763-5.723,2.154-8.251h0a2.658,2.658,0,0,0-2.09-2.1h0a8.149,8.149,0,0,0-1.461-.121h0a39.584,39.584,0,0,0-8.738,1.636h0a46.756,46.756,0,0,1-4.578,1.054h0a5.09,5.09,0,0,1-.516.026h0a15.1,15.1,0,0,1-5.194-1.439h0A14.8,14.8,0,0,0,21.992-77.834Zm-1.261,5.462c-.12-.939.046-1.389.163-1.507h0a1.4,1.4,0,0,1,1.1-.421h0a12.772,12.772,0,0,1,3.969,1.183h0a17.883,17.883,0,0,0,6.514,1.7h0a8.273,8.273,0,0,0,.925-.051h0a.315.315,0,0,0,.043,0h0a47.909,47.909,0,0,0,5.018-1.14h0a37.76,37.76,0,0,1,7.846-1.52h.147c-.136,2.25-3.046,9.115-7.8,12.8H29.633a1.757,1.757,0,0,0-.793.19h0c-4.346-2.676-7.69-7.922-8.109-11.224M29.187-3.8C21.071-4.344,14.762-6.087,10.436-8.98h0A14.649,14.649,0,0,1,3.8-18.792h0c-1.128-6.278,1.413-14.53,6.974-22.644h0c5.087-7.421,12.017-13.727,18.086-16.457h0c.031-.014.058-.032.088-.047h0a1.759,1.759,0,0,0,.682.137h10.52c6.351,2.75,13.522,8.873,18.978,16.26h0c6.229,8.435,9.125,16.988,7.944,23.467h0C65.342-8.562,54.881-3.533,36.822-3.534h-.008c-2.4,0-4.969-.09-7.627-.268" fill="none"/>
    </clipPath>
    <linearGradient id="linear-gradient" x1="-0.062" y1="-7.397" x2="1.505" y2="-7.397" gradientUnits="objectBoundingBox">
      <stop offset="0" stop-color="#034da9"/>
      <stop offset="0.1" stop-color="#0857a4"/>
      <stop offset="0.2" stop-color="#0d629d"/>
      <stop offset="0.3" stop-color="#146d96"/>
      <stop offset="0.4" stop-color="#1a778d"/>
      <stop offset="0.5" stop-color="#208184"/>
      <stop offset="0.6" stop-color="#268b79"/>
      <stop offset="0.7" stop-color="#2d956e"/>
      <stop offset="0.8" stop-color="#339f62"/>
      <stop offset="0.9" stop-color="#3aa855"/>
      <stop offset="1" stop-color="#41b147"/>
    </linearGradient>
    <clipPath id="clip-path-2">
      <path id="Path_2892" data-name="Path 2892" d="M33.475-47.958v3.6c-4.764.651-8.265,3.648-8.265,7.357h0c0,3.664,3.81,6.756,10.192,8.271h0a1.881,1.881,0,0,0,.369.046h0c3.792,1.1,6.353,2.893,6.353,4.537h0c0,2.108-3.127,3.957-6.69,3.957h0c-3.564,0-6.691-1.849-6.691-3.957h0a1.767,1.767,0,0,0-1.766-1.767h0a1.767,1.767,0,0,0-1.767,1.767h0c0,3.708,3.5,6.706,8.265,7.357h0v3.851H37.01v-3.8c4.959-.54,8.647-3.6,8.647-7.406h0c0-3.665-3.81-6.756-10.192-8.271h0a1.79,1.79,0,0,0-.374-.047h0C31.3-33.56,28.743-35.357,28.743-37h0c0-2.108,3.127-3.957,6.691-3.957h0c3.563,0,6.69,1.849,6.69,3.957h0a1.767,1.767,0,0,0,1.766,1.767h0A1.767,1.767,0,0,0,45.657-37h0c0-3.807-3.688-6.866-8.647-7.406h0v-3.552Z" fill="none"/>
    </clipPath>
  </defs>
  <g id="Group_2537" data-name="Group 2537" transform="translate(0 77.834)" clip-path="url(#clip-path)">
    <g id="Group_2536" data-name="Group 2536" transform="translate(595.016 -82.623) rotate(90)">
      <path id="Path_2889" data-name="Path 2889" d="M4.789,595.016V524.154H82.623v70.862Z" fill="url(#linear-gradient)"/>
    </g>
  </g>
  <g id="Group_2539" data-name="Group 2539" transform="translate(0 77.834)" clip-path="url(#clip-path-2)">
    <g id="Group_2538" data-name="Group 2538" transform="translate(595.016 -82.623) rotate(90)">
      <path id="Path_2891" data-name="Path 2891" d="M4.789,595.016V524.154H82.623v70.862Z" fill="url(#linear-gradient)"/>
    </g>
  </g>
</svg>
