<svg id="Stocks" xmlns="http://www.w3.org/2000/svg" xmlns:xlink="http://www.w3.org/1999/xlink" width="77.941" height="69.485" viewBox="0 0 77.941 69.485">
  <defs>
    <clipPath id="clip-path">
      <path id="Path_2896" data-name="Path 2896" d="M5.995-69.485A6,6,0,0,0,0-63.491H0v57.5A6,6,0,0,0,5.995,0H71.947a6,6,0,0,0,5.994-5.995h0v-57.5a6,6,0,0,0-5.994-5.994H5.995ZM3.534-63.491a2.464,2.464,0,0,1,2.461-2.461H71.947a2.464,2.464,0,0,1,2.461,2.461h0v57.5a2.464,2.464,0,0,1-2.461,2.461H5.995A2.464,2.464,0,0,1,3.534-5.995h0V-24.366l12.11,6.319a6.816,6.816,0,0,0-.213,1.7h0a6.848,6.848,0,0,0,6.84,6.84h0a6.849,6.849,0,0,0,6.84-6.84h0a6.792,6.792,0,0,0-.565-2.719h0l9.5-9.5A6.825,6.825,0,0,0,43.2-26.212h0a6.848,6.848,0,0,0,6.84-6.841h0A6.83,6.83,0,0,0,49.756-35h0L62.924-46.3a6.8,6.8,0,0,0,2.892.644h0a6.848,6.848,0,0,0,6.84-6.841h0a6.848,6.848,0,0,0-6.84-6.84h0a6.849,6.849,0,0,0-6.84,6.84h0a6.8,6.8,0,0,0,1.215,3.886h0L47.874-38.039A6.816,6.816,0,0,0,43.2-39.893h0a6.848,6.848,0,0,0-6.84,6.84h0a6.9,6.9,0,0,0,.091,1.112h0a1.91,1.91,0,0,0-.209.176h0L26.33-21.854a6.8,6.8,0,0,0-4.059-1.339h0a6.821,6.821,0,0,0-4.891,2.065h0L4.486-27.854a1.76,1.76,0,0,0-.952-.194h0ZM62.51-52.5a3.31,3.31,0,0,1,3.306-3.305h0A3.31,3.31,0,0,1,69.123-52.5h0a3.311,3.311,0,0,1-3.307,3.307h0A3.311,3.311,0,0,1,62.51-52.5M39.893-33.053A3.309,3.309,0,0,1,43.2-36.358h0a3.309,3.309,0,0,1,3.306,3.305h0A3.31,3.31,0,0,1,43.2-29.746h0a3.31,3.31,0,0,1-3.306-3.307m-20.928,16.7a3.31,3.31,0,0,1,3.306-3.307h0a3.29,3.29,0,0,1,1.9.606h0a1.76,1.76,0,0,0,.513,1.344h0a1.78,1.78,0,0,0,.761.448h0a3.284,3.284,0,0,1,.13.909h0a3.31,3.31,0,0,1-3.306,3.306h0a3.31,3.31,0,0,1-3.306-3.306" fill="none"/>
    </clipPath>
    <linearGradient id="linear-gradient" x1="-0.189" y1="-0.555" x2="1.565" y2="-0.555" gradientUnits="objectBoundingBox">
      <stop offset="0" stop-color="#034da9"/>
      <stop offset="0.1" stop-color="#0857a4"/>
      <stop offset="0.2" stop-color="#0d629d"/>
      <stop offset="0.3" stop-color="#146d96"/>
      <stop offset="0.4" stop-color="#1a778d"/>
      <stop offset="0.5" stop-color="#208184"/>
      <stop offset="0.6" stop-color="#268b79"/>
      <stop offset="0.7" stop-color="#2d956e"/>
      <stop offset="0.8" stop-color="#339f62"/>
      <stop offset="0.9" stop-color="#3aa855"/>
      <stop offset="1" stop-color="#41b147"/>
    </linearGradient>
  </defs>
  <g id="Group_2545" data-name="Group 2545" transform="translate(0 69.485)" clip-path="url(#clip-path)">
    <g id="Group_2544" data-name="Group 2544" transform="translate(121.216 -82.623) rotate(90)">
      <path id="Path_2895" data-name="Path 2895" d="M13.137,121.216V43.275H82.623v77.941Z" fill="url(#linear-gradient)"/>
    </g>
  </g>
</svg>
